<svg xmlns="http://www.w3.org/2000/svg" width="617" height="142" viewBox="0 0 617 142" fill="none">
<path d="M273.771 43.809C282.104 45.3556 286.158 49.6304 287.289 58.2843C287.619 60.4739 287.776 64.8356 287.776 71.3869C287.776 84.4025 286.402 89.6679 281.774 93.4561C278.538 96.2017 273.997 97.505 266.151 97.8178C263.245 97.9742 256.025 98.0611 250.771 98.0611C237.897 98.0611 231.338 97.8178 228.102 97.1749C222.117 96.1149 218.638 93.8558 216.602 89.8938C214.497 85.9317 214.01 81.9697 214.01 70.1531C214.01 61.0995 214.166 58.8404 215.141 55.1911C216.689 49.4392 219.838 46.3634 225.91 44.5909C230.451 43.305 235.392 42.9749 249.64 42.9749C265.194 42.9749 269.961 43.1312 273.771 43.7916M233.443 58.1279C231.251 59.8309 230.607 62.4896 230.607 70.2573C230.607 78.025 231.251 81.1008 233.269 82.7864C235.461 84.5589 238.123 84.8891 250.51 84.8891C264.689 84.8891 267.595 84.4025 269.456 81.8133C271.005 79.867 271.405 77.1214 271.405 69.9272C271.405 56.3381 271.161 56.1817 250.928 56.1817C238.871 56.1817 235.548 56.5813 233.443 58.1279Z" fill="white"/>
<path d="M300.719 43.583H326.78L346.457 79.3978L366.047 43.583H391.97V97.5224H375.929L376.747 55.8688L352.773 97.5224H339.655L316.098 55.8688L316.585 97.5224H300.719V43.583Z" fill="white"/>
<path d="M407.35 43.583H448.652C459.09 43.583 461.77 43.9132 465.162 45.5988C470.59 48.2749 472.608 53.2101 472.608 63.3932C472.608 73.5763 470.747 78.9981 466.293 81.7611C463.127 83.7074 459.49 84.2634 450.096 84.2634H423.703V97.5224H407.35V43.583ZM447.59 71.1609C454.306 71.1609 456.255 69.7012 456.255 64.6096C456.255 58.1452 454.637 56.6855 447.59 56.6855H423.703V71.1609H447.59Z" fill="white"/>
<path d="M501.14 43.583H523.166L552.725 97.5224H534.753L529.412 87.8953H494.599L489.414 97.5224H470.799L501.158 43.583H501.14ZM523.653 76.6521L511.997 55.139L500.497 76.6521H523.653Z" fill="white"/>
<path d="M569.061 78.8417L538.215 43.583H559.196L577.412 65.8956L595.471 43.583H616.035L585.589 78.8417V97.5224H569.061V78.8417Z" fill="white"/>
<path d="M66.8415 122.441L37.248 92.8826V70.4832L78.0456 111.25L66.8415 122.441Z" fill="white"/>
<path d="M93.0262 122.441L122.62 92.8826V70.4832L81.8047 111.25L93.0262 122.441Z" fill="white"/>
<path d="M48.192 141.07L0.0351562 92.9695V70.5701L59.4135 129.879L48.192 141.07Z" fill="white"/>
<path d="M111.659 141.07L100.455 129.879L159.833 70.5701V92.9695L111.659 141.07Z" fill="white"/>
<path d="M66.8415 18.6987L37.248 48.2576V70.6397L78.0456 29.8898L66.8415 18.6987Z" fill="white"/>
<path d="M93.0262 18.6987L122.62 48.2576V70.6397L81.8047 29.8898L93.0262 18.6987Z" fill="white"/>
<path d="M48.192 0.0700684L0.0351562 48.1706V70.5701L59.4135 11.2611L48.192 0.0700684Z" fill="white"/>
<path d="M111.659 0.0700684L100.455 11.2611L159.833 70.5701V48.1706L111.659 0.0700684Z" fill="white"/>
</svg>